<?xml version="1.0" encoding="utf-8"?>
<!-- Generator: Adobe Illustrator 27.5.0, SVG Export Plug-In . SVG Version: 6.00 Build 0)  -->
<svg version="1.1" xmlns="http://www.w3.org/2000/svg" xmlns:xlink="http://www.w3.org/1999/xlink" x="0px" y="0px"
	 viewBox="0 0 750 500" style="enable-background:new 0 0 750 500;" xml:space="preserve">
<g id="Background_Simple">
	<g>
		<path style="fill:#92E3A9;" d="M732.379,299.813c12.694-110.866-83.02-211.191-180.844-252.208
			c-71.857-30.13-149.602-11.194-218.828,16.334c-23.027,9.157-45.573,20.087-69.171,27.788c-17.537,5.723-35.224,8.239-53.604,5.88
			c-22.106-2.837-45.368-9.41-67.669-5.081c-20.958,4.069-39.893,16.14-54.458,31.173c-55.205,56.975-75.912,144.061-59.46,219.77
			c0.982,4.518,2.083,9.01,3.295,13.474c43.041,158.44,219.598,88.692,299.531,86.109c79.933-2.583,161.624,35.305,256.49,11.194
			C654.574,437.239,721.926,391.101,732.379,299.813z"/>
		<path style="opacity:0.8;fill:#FFFFFF;" d="M732.379,299.813c12.694-110.866-83.02-211.191-180.844-252.208
			c-71.857-30.13-149.602-11.194-218.828,16.334c-23.027,9.157-45.573,20.087-69.171,27.788c-17.537,5.723-35.224,8.239-53.604,5.88
			c-22.106-2.837-45.368-9.41-67.669-5.081c-20.958,4.069-39.893,16.14-54.458,31.173c-55.205,56.975-75.912,144.061-59.46,219.77
			c0.982,4.518,2.083,9.01,3.295,13.474c43.041,158.44,219.598,88.692,299.531,86.109c79.933-2.583,161.624,35.305,256.49,11.194
			C654.574,437.239,721.926,391.101,732.379,299.813z"/>
	</g>
</g>
<g id="Floor">
	<g>
		<line style="fill:none;stroke:#263238;stroke-miterlimit:10;" x1="705.781" y1="468.892" x2="717.245" y2="468.892"/>
		<line style="fill:none;stroke:#263238;stroke-miterlimit:10;" x1="28.708" y1="468.892" x2="701.732" y2="468.892"/>
	</g>
</g>
<g id="Plants">
	<g style="opacity:0.3;">
		<path d="M146.18,140.13c0.12-0.002-2.439-7.519-2.655-7.975c-2.499-5.274-10.428-13.996-16.908-13.143
			c-4.668,0.614-7.279,5.274-6.241,9.671c1.06,4.49,5.652,7.839,9.64,9.599C134.698,140.348,146.171,140.129,146.18,140.13z"/>
		<path d="M47.789,201.693c5.045-0.861,14.494-7.372,14.501-7.377c0.098-0.068-6.182-4.925-6.613-5.187
			c-4.994-3.02-16.419-5.921-21.354-1.635c-3.554,3.088-3.161,8.415,0.13,11.51C37.815,202.164,43.492,202.425,47.789,201.693z"/>
		<path d="M69.334,227.299c4.456-2.076,11.386-10.176,11.935-10.823c4.496,3.904,9.426,7.545,14.619,10.956
			c2.966,1.953,6.015,3.829,9.095,5.67c-1.532-0.632-2.905-1.184-3.105-1.241c-5.615-1.595-17.4-1.374-21.027,4.062
			c-2.614,3.917-0.827,8.951,3.164,11.066c4.076,2.161,9.622,0.913,13.573-0.928c4.009-1.869,10.056-8.656,11.632-10.474
			c1.189,0.694,2.368,1.401,3.56,2.09c5.718,3.307,11.439,6.584,16.95,9.971c1.944,1.191,3.813,2.437,5.689,3.676
			c-1.361-0.559-2.512-1.018-2.694-1.07c-5.614-1.594-17.4-1.375-21.027,4.061c-2.613,3.917-0.827,8.951,3.165,11.067
			c4.077,2.16,9.621,0.913,13.572-0.929c3.826-1.783,9.464-7.998,11.346-10.148c1.882,1.327,3.77,2.652,5.534,4.024
			c1.183,0.964,2.389,1.809,3.524,2.842c1.145,0.999,2.278,1.989,3.401,2.969c2.092,1.967,4.263,3.984,6.256,5.955
			c1.397,1.359,2.702,2.681,4.021,4.008c-1.92-1.21-5.729-3.498-6.069-3.653c-5.307-2.427-16.99-3.995-21.4,0.83
			c-3.176,3.476-2.174,8.722,1.451,11.418c3.702,2.753,9.372,2.36,13.557,1.138c4.606-1.346,12.398-7.994,13.366-8.831
			c2.175,2.204,4.27,4.369,6.214,6.443c5.348,5.678,9.799,10.748,13.254,14.808l3.272-2.802c-3.586-4.031-8.199-9.062-13.734-14.69
			c-2.2-2.247-4.596-4.605-7.078-7.002c0.472-0.672,3.133-4.516,5.166-8.417c4.784,1.193,14.276,0.034,15.5-0.124
			c0.598,3.038,1.151,5.999,1.628,8.801c1.183,6.847,2.037,12.895,2.665,17.881l3.82-3.271c-0.691-4.459-1.564-9.608-2.676-15.307
			c-0.595-3.087-1.292-6.375-2.04-9.745c1.169-0.46,10.7-4.271,14.039-7.729c3.027-3.136,6.012-7.973,5.297-12.531
			c-0.7-4.463-4.879-7.791-9.434-6.595c-6.321,1.66-10.367,12.731-10.686,18.558c-0.02,0.344,0.193,4.096,0.366,6.462
			c-0.313-1.375-0.602-2.714-0.941-4.125c-0.652-2.796-1.385-5.566-2.164-8.55c-0.426-1.427-0.857-2.87-1.292-4.326
			c-0.4-1.453-1.008-2.938-1.51-4.424c-1.237-3.419-2.657-6.825-4.164-10.224c2.447-0.577,11.106-2.753,14.59-5.406
			c3.467-2.641,7.15-6.97,7.133-11.583c-0.017-4.518-3.643-8.44-8.326-7.949c-6.5,0.684-12.175,11.015-13.374,16.726
			c-0.075,0.356-0.475,4.551-0.65,6.86c-0.921-2.036-1.831-4.073-2.831-6.102c-2.883-5.859-5.984-11.699-9.052-17.54
			c-0.941-1.789-1.856-3.581-2.78-5.374c0.872-0.195,11.222-2.558,15.123-5.53c3.468-2.641,7.151-6.97,7.134-11.584
			c-0.017-4.518-3.643-8.44-8.326-7.948c-6.5,0.683-12.175,11.014-13.375,16.726c-0.09,0.43-0.657,6.467-0.726,8.01
			c-2.032-3.947-4.021-7.899-5.824-11.874c-2.494-5.483-4.64-10.999-6.322-16.497c0.407-0.09,11.218-2.507,15.214-5.551
			c3.468-2.641,7.151-6.97,7.134-11.585c-0.017-4.517-3.643-8.44-8.326-7.947c-6.5,0.683-12.175,11.014-13.375,16.725
			c-0.079,0.375-0.515,4.972-0.671,7.165c-0.205,0.021-0.168,0.018-0.372,0.038c-1.731-5.911-2.664-11.856-3.263-17.463
			c-0.353-3.247-0.509-6.37-0.592-9.413c2.059-0.244,11.46-1.462,15.359-3.803c3.737-2.245,7.873-6.143,8.364-10.73
			c0.479-4.493-2.694-8.79-7.403-8.815c-6.536-0.035-13.311,9.61-15.13,15.155c-0.099,0.302-0.765,3.479-1.218,5.8
			c-0.016-1.373-0.059-2.791-0.049-4.108c0.026-4.942,0.355-9.466,0.678-13.47c0.203-2.276,0.43-4.329,0.664-6.249
			c1.897-1.294,9.474-6.603,11.813-10.409c2.282-3.714,4.157-9.079,2.478-13.377c-1.645-4.208-6.442-6.559-10.632-4.411
			c-5.816,2.981-7.385,14.663-6.445,20.424c0.082,0.497,2.247,8.136,2.347,8.07c0,0,0.092-0.063,0.115-0.078
			c-0.262,1.843-0.521,3.82-0.761,5.988c-0.411,4.005-0.839,8.535-0.973,13.496c-0.147,4.957-0.167,10.348,0.326,16.026
			c0.485,5.693,1.286,11.658,2.906,17.696c0.018,0.069,0.046,0.138,0.065,0.205c-1.023-1.619-4.033-6.05-4.303-6.364
			c-3.803-4.427-13.753-10.745-19.779-8.212c-4.34,1.826-5.628,7.01-3.466,10.977c2.208,4.05,7.521,6.069,11.833,6.713
			c4.862,0.726,15.11-2.207,15.926-2.443c1.595,5.737,3.699,11.494,6.149,17.203c1.397,3.265,2.905,6.511,4.459,9.746
			c-0.928-1.372-1.77-2.591-1.906-2.748c-3.803-4.427-13.754-10.745-19.778-8.212c-4.341,1.826-5.628,7.01-3.466,10.977
			c2.208,4.051,7.521,6.069,11.833,6.713c4.375,0.653,13.162-1.672,15.48-2.319c0.609,1.235,1.203,2.475,1.817,3.707
			c2.944,5.913,5.908,11.802,8.637,17.666c0.963,2.067,1.835,4.137,2.716,6.205c-0.827-1.217-1.533-2.235-1.657-2.38
			c-3.803-4.427-13.753-10.745-19.779-8.212c-4.341,1.825-5.628,7.009-3.466,10.976c2.208,4.05,7.522,6.069,11.833,6.712
			c4.175,0.624,12.305-1.45,15.063-2.205c0.837,2.145,1.68,4.292,2.395,6.408c0.455,1.457,0.995,2.827,1.372,4.315
			c0.403,1.465,0.802,2.915,1.198,4.352c0.66,2.796,1.359,5.675,1.934,8.418c0.414,1.905,0.775,3.727,1.143,5.562
			c-0.934-2.069-2.85-6.078-3.047-6.395c-2.052-3.29-6.662-7.804-11.384-10.004c-0.3-0.488-0.642-0.947-1.028-1.371
			c-3.047-3.335-8.369-3.805-11.507-0.296c-4.358,4.872-1.623,16.337,1.325,21.374c0.174,0.297,2.421,3.31,3.87,5.188
			c-1.02-0.975-1.999-1.932-3.061-2.921c-2.087-1.972-4.226-3.879-6.522-5.938c-1.143-0.955-2.298-1.92-3.465-2.895
			c-1.135-0.992-2.462-1.894-3.699-2.857c-2.919-2.169-5.981-4.226-9.113-6.23c1.722-1.831,7.744-8.422,9.186-12.557
			c1.435-4.115,2.119-9.758-0.44-13.596c-2.506-3.759-7.694-5.031-11.329-2.037c-5.044,4.156-4.079,15.903-1.928,21.329
			c0.135,0.339,2.115,4.058,3.243,6.08c-1.893-1.19-3.774-2.387-5.727-3.529c-5.637-3.296-11.445-6.456-17.226-9.636
			c-1.772-0.973-3.524-1.963-5.284-2.948c0.62-0.645,7.948-8.325,9.562-12.956c1.435-4.116,2.119-9.759-0.44-13.597
			c-2.506-3.759-7.694-5.03-11.329-2.036c-5.045,4.156-4.079,15.903-1.928,21.329c0.162,0.409,3.02,5.756,3.813,7.081
			c-3.872-2.17-7.712-4.369-11.408-6.691c-5.105-3.196-9.937-6.614-14.374-10.273c0.289-0.3,7.974-8.28,9.627-13.023
			c1.435-4.115,2.119-9.758-0.44-13.597c-2.506-3.759-7.694-5.03-11.328-2.036c-5.045,4.156-4.079,15.903-1.929,21.328
			c0.141,0.357,2.316,4.436,3.395,6.35c-0.158,0.13-0.13,0.106-0.288,0.236c-4.706-3.976-8.764-8.42-12.357-12.768
			c-2.086-2.513-3.939-5.032-5.687-7.524c1.584-1.339,8.753-7.541,10.713-11.646c1.879-3.934,3.178-9.466,1.057-13.563
			c-2.079-4.011-7.096-5.845-11.037-3.268c-5.47,3.576-5.8,15.358-4.258,20.987c0.083,0.306,1.281,3.323,2.182,5.509
			c-0.771-1.136-1.589-2.295-2.306-3.399c-2.705-4.136-4.927-8.091-6.866-11.61c-1.087-2.01-2.029-3.848-2.893-5.578
			c0.868-2.125,4.259-10.734,4.111-15.198c-0.146-4.357-1.542-9.866-5.313-12.524c-3.693-2.602-8.991-1.917-11.302,2.186
			c-3.207,5.695,1.93,16.304,5.892,20.59c0.343,0.37,6.363,5.546,6.41,5.436c0,0,0.043-0.103,0.052-0.128
			c0.798,1.681,1.673,3.475,2.668,5.414c1.866,3.567,4.008,7.582,6.633,11.794c2.612,4.215,5.569,8.723,9.113,13.187
			c3.546,4.481,7.504,9.014,12.186,13.157c0.053,0.046,0.114,0.088,0.167,0.135c-1.745-0.786-6.701-2.821-7.099-2.935
			c-5.614-1.594-17.4-1.375-21.027,4.062c-2.613,3.917-0.828,8.951,3.165,11.067C59.838,230.389,65.383,229.141,69.334,227.299z"/>
		<path style="opacity:0.3;" d="M47.789,201.693c5.045-0.861,14.494-7.372,14.501-7.377c0.098-0.068-6.182-4.925-6.613-5.187
			c-4.994-3.02-16.419-5.921-21.354-1.635c-3.554,3.088-3.161,8.415,0.13,11.51C37.815,202.164,43.492,202.425,47.789,201.693z"/>
		<path style="opacity:0.3;" d="M146.18,140.13c0.12-0.002-2.439-7.519-2.655-7.975c-2.499-5.274-10.428-13.996-16.908-13.143
			c-4.668,0.614-7.279,5.274-6.241,9.671c1.06,4.49,5.652,7.839,9.64,9.599C134.698,140.348,146.171,140.129,146.18,140.13z"/>
		<path style="opacity:0.3;" d="M69.334,227.299c4.456-2.076,11.386-10.176,11.935-10.823c4.496,3.904,9.426,7.545,14.619,10.956
			c2.966,1.953,6.015,3.829,9.095,5.67c-1.532-0.632-2.905-1.184-3.105-1.241c-5.615-1.595-17.4-1.374-21.027,4.062
			c-2.614,3.917-0.827,8.951,3.164,11.066c4.076,2.161,9.622,0.913,13.573-0.928c4.009-1.869,10.056-8.656,11.632-10.474
			c1.189,0.694,2.368,1.401,3.56,2.09c5.718,3.307,11.439,6.584,16.95,9.971c1.944,1.191,3.813,2.437,5.689,3.676
			c-1.361-0.559-2.512-1.018-2.694-1.07c-5.614-1.594-17.4-1.375-21.027,4.061c-2.613,3.917-0.827,8.951,3.165,11.067
			c4.077,2.16,9.621,0.913,13.572-0.929c3.826-1.783,9.464-7.998,11.346-10.148c1.882,1.327,3.77,2.652,5.534,4.024
			c1.183,0.964,2.389,1.809,3.524,2.842c1.145,0.999,2.278,1.989,3.401,2.969c2.092,1.967,4.263,3.984,6.256,5.955
			c1.397,1.359,2.702,2.681,4.021,4.008c-1.92-1.21-5.729-3.498-6.069-3.653c-5.307-2.427-16.99-3.995-21.4,0.83
			c-3.176,3.476-2.174,8.722,1.451,11.418c3.702,2.753,9.372,2.36,13.557,1.138c4.606-1.346,12.398-7.994,13.366-8.831
			c2.175,2.204,4.27,4.369,6.214,6.443c5.348,5.678,9.799,10.748,13.254,14.808l3.272-2.802c-3.586-4.031-8.199-9.062-13.734-14.69
			c-2.2-2.247-4.596-4.605-7.078-7.002c0.472-0.672,3.133-4.516,5.166-8.417c4.784,1.193,14.276,0.034,15.5-0.124
			c0.598,3.038,1.151,5.999,1.628,8.801c1.183,6.847,2.037,12.895,2.665,17.881l3.82-3.271c-0.691-4.459-1.564-9.608-2.676-15.307
			c-0.595-3.087-1.292-6.375-2.04-9.745c1.169-0.46,10.7-4.271,14.039-7.729c3.027-3.136,6.012-7.973,5.297-12.531
			c-0.7-4.463-4.879-7.791-9.434-6.595c-6.321,1.66-10.367,12.731-10.686,18.558c-0.02,0.344,0.193,4.096,0.366,6.462
			c-0.313-1.375-0.602-2.714-0.941-4.125c-0.652-2.796-1.385-5.566-2.164-8.55c-0.426-1.427-0.857-2.87-1.292-4.326
			c-0.4-1.453-1.008-2.938-1.51-4.424c-1.237-3.419-2.657-6.825-4.164-10.224c2.447-0.577,11.106-2.753,14.59-5.406
			c3.467-2.641,7.15-6.97,7.133-11.583c-0.017-4.518-3.643-8.44-8.326-7.949c-6.5,0.684-12.175,11.015-13.374,16.726
			c-0.075,0.356-0.475,4.551-0.65,6.86c-0.921-2.036-1.831-4.073-2.831-6.102c-2.883-5.859-5.984-11.699-9.052-17.54
			c-0.941-1.789-1.856-3.581-2.78-5.374c0.872-0.195,11.222-2.558,15.123-5.53c3.468-2.641,7.151-6.97,7.134-11.584
			c-0.017-4.518-3.643-8.44-8.326-7.948c-6.5,0.683-12.175,11.014-13.375,16.726c-0.09,0.43-0.657,6.467-0.726,8.01
			c-2.032-3.947-4.021-7.899-5.824-11.874c-2.494-5.483-4.64-10.999-6.322-16.497c0.407-0.09,11.218-2.507,15.214-5.551
			c3.468-2.641,7.151-6.97,7.134-11.585c-0.017-4.517-3.643-8.44-8.326-7.947c-6.5,0.683-12.175,11.014-13.375,16.725
			c-0.079,0.375-0.515,4.972-0.671,7.165c-0.205,0.021-0.168,0.018-0.372,0.038c-1.731-5.911-2.664-11.856-3.263-17.463
			c-0.353-3.247-0.509-6.37-0.592-9.413c2.059-0.244,11.46-1.462,15.359-3.803c3.737-2.245,7.873-6.143,8.364-10.73
			c0.479-4.493-2.694-8.79-7.403-8.815c-6.536-0.035-13.311,9.61-15.13,15.155c-0.099,0.302-0.765,3.479-1.218,5.8
			c-0.016-1.373-0.059-2.791-0.049-4.108c0.026-4.942,0.355-9.466,0.678-13.47c0.203-2.276,0.43-4.329,0.664-6.249
			c1.897-1.294,9.474-6.603,11.813-10.409c2.282-3.714,4.157-9.079,2.478-13.377c-1.645-4.208-6.442-6.559-10.632-4.411
			c-5.816,2.981-7.385,14.663-6.445,20.424c0.082,0.497,2.247,8.136,2.347,8.07c0,0,0.092-0.063,0.115-0.078
			c-0.262,1.843-0.521,3.82-0.761,5.988c-0.411,4.005-0.839,8.535-0.973,13.496c-0.147,4.957-0.167,10.348,0.326,16.026
			c0.485,5.693,1.286,11.658,2.906,17.696c0.018,0.069,0.046,0.138,0.065,0.205c-1.023-1.619-4.033-6.05-4.303-6.364
			c-3.803-4.427-13.753-10.745-19.779-8.212c-4.34,1.826-5.628,7.01-3.466,10.977c2.208,4.05,7.521,6.069,11.833,6.713
			c4.862,0.726,15.11-2.207,15.926-2.443c1.595,5.737,3.699,11.494,6.149,17.203c1.397,3.265,2.905,6.511,4.459,9.746
			c-0.928-1.372-1.77-2.591-1.906-2.748c-3.803-4.427-13.754-10.745-19.778-8.212c-4.341,1.826-5.628,7.01-3.466,10.977
			c2.208,4.051,7.521,6.069,11.833,6.713c4.375,0.653,13.162-1.672,15.48-2.319c0.609,1.235,1.203,2.475,1.817,3.707
			c2.944,5.913,5.908,11.802,8.637,17.666c0.963,2.067,1.835,4.137,2.716,6.205c-0.827-1.217-1.533-2.235-1.657-2.38
			c-3.803-4.427-13.753-10.745-19.779-8.212c-4.341,1.825-5.628,7.009-3.466,10.976c2.208,4.05,7.522,6.069,11.833,6.712
			c4.175,0.624,12.305-1.45,15.063-2.205c0.837,2.145,1.68,4.292,2.395,6.408c0.455,1.457,0.995,2.827,1.372,4.315
			c0.403,1.465,0.802,2.915,1.198,4.352c0.66,2.796,1.359,5.675,1.934,8.418c0.414,1.905,0.775,3.727,1.143,5.562
			c-0.934-2.069-2.85-6.078-3.047-6.395c-2.052-3.29-6.662-7.804-11.384-10.004c-0.3-0.488-0.642-0.947-1.028-1.371
			c-3.047-3.335-8.369-3.805-11.507-0.296c-4.358,4.872-1.623,16.337,1.325,21.374c0.174,0.297,2.421,3.31,3.87,5.188
			c-1.02-0.975-1.999-1.932-3.061-2.921c-2.087-1.972-4.226-3.879-6.522-5.938c-1.143-0.955-2.298-1.92-3.465-2.895
			c-1.135-0.992-2.462-1.894-3.699-2.857c-2.919-2.169-5.981-4.226-9.113-6.23c1.722-1.831,7.744-8.422,9.186-12.557
			c1.435-4.115,2.119-9.758-0.44-13.596c-2.506-3.759-7.694-5.031-11.329-2.037c-5.044,4.156-4.079,15.903-1.928,21.329
			c0.135,0.339,2.115,4.058,3.243,6.08c-1.893-1.19-3.774-2.387-5.727-3.529c-5.637-3.296-11.445-6.456-17.226-9.636
			c-1.772-0.973-3.524-1.963-5.284-2.948c0.62-0.645,7.948-8.325,9.562-12.956c1.435-4.116,2.119-9.759-0.44-13.597
			c-2.506-3.759-7.694-5.03-11.329-2.036c-5.045,4.156-4.079,15.903-1.928,21.329c0.162,0.409,3.02,5.756,3.813,7.081
			c-3.872-2.17-7.712-4.369-11.408-6.691c-5.105-3.196-9.937-6.614-14.374-10.273c0.289-0.3,7.974-8.28,9.627-13.023
			c1.435-4.115,2.119-9.758-0.44-13.597c-2.506-3.759-7.694-5.03-11.328-2.036c-5.045,4.156-4.079,15.903-1.929,21.328
			c0.141,0.357,2.316,4.436,3.395,6.35c-0.158,0.13-0.13,0.106-0.288,0.236c-4.706-3.976-8.764-8.42-12.357-12.768
			c-2.086-2.513-3.939-5.032-5.687-7.524c1.584-1.339,8.753-7.541,10.713-11.646c1.879-3.934,3.178-9.466,1.057-13.563
			c-2.079-4.011-7.096-5.845-11.037-3.268c-5.47,3.576-5.8,15.358-4.258,20.987c0.083,0.306,1.281,3.323,2.182,5.509
			c-0.771-1.136-1.589-2.295-2.306-3.399c-2.705-4.136-4.927-8.091-6.866-11.61c-1.087-2.01-2.029-3.848-2.893-5.578
			c0.868-2.125,4.259-10.734,4.111-15.198c-0.146-4.357-1.542-9.866-5.313-12.524c-3.693-2.602-8.991-1.917-11.302,2.186
			c-3.207,5.695,1.93,16.304,5.892,20.59c0.343,0.37,6.363,5.546,6.41,5.436c0,0,0.043-0.103,0.052-0.128
			c0.798,1.681,1.673,3.475,2.668,5.414c1.866,3.567,4.008,7.582,6.633,11.794c2.612,4.215,5.569,8.723,9.113,13.187
			c3.546,4.481,7.504,9.014,12.186,13.157c0.053,0.046,0.114,0.088,0.167,0.135c-1.745-0.786-6.701-2.821-7.099-2.935
			c-5.614-1.594-17.4-1.375-21.027,4.062c-2.613,3.917-0.828,8.951,3.165,11.067C59.838,230.389,65.383,229.141,69.334,227.299z"/>
	</g>
	<g style="opacity:0.3;">
		<path d="M624.014,68.615c-0.107-0.002,2.187-6.741,2.38-7.15c2.241-4.728,9.349-12.548,15.159-11.783
			c4.185,0.55,6.526,4.729,5.596,8.671c-0.95,4.026-5.067,7.029-8.643,8.607C634.309,68.811,624.022,68.615,624.014,68.615z"/>
		<path d="M712.228,123.81c-4.523-0.772-12.995-6.609-13.001-6.614c-0.088-0.061,5.542-4.416,5.929-4.65
			c4.478-2.708,14.721-5.308,19.145-1.466c3.187,2.768,2.834,7.545-0.117,10.319C721.171,124.233,716.081,124.467,712.228,123.81z"
			/>
		<path d="M721.363,74.282c-2.071-3.679-6.822-4.293-10.133-1.96c-3.381,2.383-4.632,7.323-4.763,11.229
			c-0.133,4.002,2.907,11.72,3.685,13.626c-0.775,1.551-1.619,3.199-2.594,5.001c-1.739,3.155-3.731,6.7-6.156,10.409
			c-0.643,0.989-1.376,2.029-2.068,3.047c0.809-1.96,1.882-4.665,1.957-4.939c1.382-5.047,1.087-15.611-3.818-18.817
			c-3.534-2.311-8.032-0.667-9.896,2.93c-1.902,3.673-0.737,8.633,0.947,12.16c1.757,3.68,8.185,9.24,9.605,10.441
			c-1.567,2.234-3.229,4.493-5.099,6.746c-3.221,3.898-6.859,7.882-11.079,11.447c-0.142-0.117-0.116-0.095-0.258-0.212
			c0.967-1.716,2.917-5.373,3.043-5.693c1.928-4.863,2.794-15.396-1.729-19.122c-3.258-2.684-7.91-1.545-10.157,1.825
			c-2.295,3.442-1.682,8.501-0.394,12.191c1.483,4.253,8.372,11.408,8.631,11.676c-3.977,3.28-8.31,6.344-12.887,9.21
			c-3.314,2.081-6.757,4.053-10.228,5.999c0.711-1.187,3.274-5.982,3.419-6.348c1.928-4.864,2.794-15.397-1.729-19.123
			c-3.259-2.684-7.91-1.545-10.157,1.825c-2.295,3.442-1.681,8.501-0.395,12.191c1.447,4.152,8.018,11.037,8.573,11.616
			c-1.578,0.883-3.149,1.771-4.737,2.643c-5.183,2.851-10.391,5.684-15.445,8.639c-1.751,1.023-3.438,2.097-5.135,3.164
			c1.011-1.813,2.787-5.148,2.907-5.451c1.928-4.865,2.794-15.397-1.729-19.123c-3.259-2.684-7.911-1.544-10.157,1.826
			c-2.294,3.441-1.681,8.5-0.394,12.19c1.292,3.707,6.692,9.617,8.236,11.258c-2.808,1.797-5.553,3.641-8.171,5.586
			c-1.11,0.863-2.299,1.672-3.317,2.561c-1.046,0.874-2.082,1.739-3.106,2.595c-2.058,1.847-3.976,3.556-5.847,5.324
			c-0.952,0.887-1.829,1.745-2.744,2.619c1.3-1.684,3.314-4.385,3.47-4.651c2.643-4.516,5.095-14.796,1.188-19.164
			c-2.814-3.147-7.585-2.725-10.317,0.265c-0.346,0.381-0.652,0.792-0.922,1.23c-4.234,1.973-8.366,6.02-10.206,8.969
			c-0.177,0.284-1.894,3.879-2.732,5.734c0.33-1.645,0.653-3.279,1.024-4.987c0.516-2.459,1.142-5.041,1.734-7.547
			c0.355-1.288,0.713-2.588,1.074-3.902c0.338-1.334,0.822-2.563,1.23-3.869c0.641-1.898,1.397-3.822,2.148-5.746
			c2.472,0.677,9.761,2.536,13.505,1.977c3.865-0.577,8.629-2.387,10.609-6.018c1.939-3.557,0.784-8.205-3.107-9.841
			c-5.402-2.272-14.323,3.393-17.733,7.362c-0.111,0.129-0.744,1.042-1.485,2.133c0.79-1.854,1.571-3.71,2.435-5.563
			c2.447-5.258,5.104-10.537,7.744-15.839c0.55-1.105,1.083-2.216,1.629-3.323c2.078,0.579,9.957,2.664,13.879,2.079
			c3.865-0.577,8.629-2.386,10.609-6.019c1.939-3.556,0.784-8.205-3.107-9.841c-5.402-2.271-14.323,3.394-17.733,7.363
			c-0.122,0.142-0.876,1.234-1.709,2.464c1.393-2.9,2.745-5.81,3.997-8.738c2.196-5.119,4.082-10.28,5.513-15.424
			c0.731,0.212,9.919,2.841,14.279,2.191c3.865-0.577,8.629-2.387,10.609-6.019c1.938-3.557,0.784-8.204-3.107-9.841
			c-5.402-2.271-14.324,3.394-17.733,7.363c-0.242,0.282-2.941,4.255-3.858,5.706c0.017-0.061,0.042-0.123,0.058-0.184
			c1.453-5.414,2.171-10.761,2.606-15.865c0.441-5.091,0.424-9.925,0.292-14.369c-0.12-4.448-0.504-8.509-0.873-12.1
			c-0.215-1.943-0.448-3.716-0.682-5.369c0.02,0.014,0.103,0.07,0.103,0.07c0.09,0.06,2.031-6.789,2.105-7.235
			c0.843-5.165-0.563-15.639-5.778-18.311c-3.757-1.925-8.057,0.182-9.532,3.955c-1.506,3.853,0.176,8.664,2.221,11.993
			c2.097,3.412,8.89,8.172,10.591,9.332c0.209,1.721,0.413,3.562,0.595,5.602c0.29,3.59,0.584,7.646,0.608,12.077
			c0.009,1.181-0.029,2.451-0.044,3.683c-0.406-2.081-1.003-4.929-1.092-5.2c-1.631-4.971-7.706-13.619-13.566-13.587
			c-4.221,0.022-7.067,3.875-6.637,7.903c0.44,4.113,4.148,7.607,7.499,9.62c3.495,2.099,11.924,3.191,13.77,3.41
			c-0.074,2.728-0.214,5.528-0.53,8.439c-0.537,5.027-1.373,10.357-2.925,15.657c-0.183-0.019-0.15-0.016-0.334-0.035
			c-0.14-1.966-0.531-6.088-0.601-6.424c-1.075-5.121-6.163-14.383-11.991-14.996c-4.199-0.441-7.45,3.076-7.465,7.126
			c-0.015,4.137,3.287,8.018,6.396,10.386c3.583,2.729,13.276,4.896,13.641,4.977c-1.508,4.929-3.432,9.875-5.668,14.791
			c-1.616,3.564-3.399,7.107-5.221,10.646c-0.062-1.383-0.57-6.795-0.651-7.181c-1.075-5.121-6.164-14.383-11.991-14.996
			c-4.198-0.442-7.449,3.076-7.465,7.126c-0.015,4.137,3.287,8.018,6.396,10.385c3.498,2.664,12.776,4.783,13.559,4.958
			c-0.828,1.607-1.649,3.214-2.492,4.818c-2.751,5.237-5.531,10.473-8.116,15.726c-0.896,1.819-1.712,3.645-2.538,5.471
			c-0.157-2.07-0.515-5.831-0.583-6.151c-1.075-5.121-6.164-14.383-11.991-14.996c-4.199-0.441-7.449,3.076-7.465,7.127
			c-0.015,4.137,3.287,8.018,6.396,10.385c3.124,2.379,10.887,4.329,13.081,4.847c-1.351,3.047-2.624,6.101-3.733,9.166
			c-0.451,1.332-0.995,2.663-1.354,3.966c-0.39,1.305-0.776,2.599-1.158,3.879c-0.698,2.675-1.356,5.16-1.94,7.666
			c-0.305,1.266-0.563,2.465-0.844,3.698c0.155-2.121,0.345-5.485,0.328-5.794c-0.286-5.225-3.913-15.151-9.581-16.639
			c-4.083-1.073-7.83,1.911-8.458,5.913c-0.641,4.086,2.035,8.423,4.749,11.234c2.993,3.1,11.538,6.518,12.587,6.93
			c-0.671,3.021-1.296,5.969-1.83,8.737c-0.996,5.105-1.778,9.719-2.398,13.714h3.807c0.515-3.84,1.167-8.236,2.005-13.088
			c0.428-2.512,0.924-5.167,1.46-7.891c1.098,0.142,9.608,1.181,13.897,0.112c1.823,3.497,4.209,6.944,4.632,7.547
			c-2.226,2.15-4.374,4.263-6.346,6.278c-2.452,2.493-4.701,4.855-6.738,7.043h4.956c1.35-1.486,2.773-3.031,4.286-4.637
			c1.742-1.859,3.621-3.8,5.571-5.777c0.868,0.75,7.854,6.711,11.983,7.918c3.752,1.095,8.835,1.448,12.155-1.021
			c3.251-2.417,4.149-7.121,1.301-10.237c-3.954-4.326-14.428-2.92-19.186-0.744c-0.305,0.139-3.72,2.19-5.442,3.275
			c1.182-1.19,2.353-2.376,3.605-3.594c1.787-1.767,3.734-3.575,5.609-5.339c1.007-0.878,2.023-1.766,3.049-2.662
			c1.017-0.927,2.099-1.685,3.159-2.548c1.581-1.23,3.274-2.418,4.961-3.607c1.688,1.928,6.743,7.5,10.173,9.098
			c3.543,1.651,8.514,2.77,12.169,0.833c3.579-1.897,5.18-6.41,2.837-9.923c-3.252-4.874-13.818-5.071-18.852-3.641
			c-0.164,0.047-1.195,0.459-2.416,0.96c1.682-1.111,3.358-2.228,5.1-3.296c4.941-3.036,10.07-5.974,15.197-8.94
			c1.068-0.618,2.126-1.251,3.192-1.874c1.413,1.63,6.835,7.715,10.429,9.39c3.543,1.651,8.514,2.77,12.169,0.832
			c3.579-1.896,5.18-6.41,2.837-9.922c-3.252-4.874-13.818-5.071-18.852-3.642c-0.18,0.051-1.411,0.547-2.784,1.113
			c2.762-1.65,5.495-3.332,8.155-5.083c4.656-3.057,9.076-6.322,13.107-9.823c0.492,0.58,6.705,7.842,10.701,9.704
			c3.542,1.652,8.514,2.77,12.168,0.833c3.58-1.897,5.18-6.411,2.837-9.923c-3.252-4.874-13.819-5.071-18.852-3.642
			c-0.357,0.102-4.8,1.926-6.364,2.631c0.047-0.042,0.102-0.079,0.15-0.121c4.198-3.714,7.747-7.778,10.926-11.796
			c3.177-4.003,5.828-8.044,8.17-11.823c2.354-3.776,4.274-7.376,5.947-10.574c0.892-1.739,1.677-3.347,2.392-4.854
			c0.009,0.022,0.047,0.115,0.047,0.115c0.042,0.099,5.44-4.542,5.747-4.874C719.633,88.899,724.238,79.387,721.363,74.282z"/>
		<path style="opacity:0.3;" d="M712.228,123.81c-4.523-0.772-12.995-6.609-13.001-6.614c-0.088-0.061,5.542-4.416,5.929-4.65
			c4.478-2.708,14.721-5.308,19.145-1.466c3.187,2.768,2.834,7.545-0.117,10.319C721.171,124.233,716.081,124.467,712.228,123.81z"
			/>
		<path style="opacity:0.3;" d="M624.014,68.615c-0.107-0.002,2.187-6.741,2.38-7.15c2.241-4.728,9.349-12.548,15.159-11.783
			c4.185,0.55,6.526,4.729,5.596,8.671c-0.95,4.026-5.067,7.029-8.643,8.607C634.309,68.811,624.022,68.615,624.014,68.615z"/>
		<path style="opacity:0.3;" d="M721.363,74.282c-2.071-3.679-6.822-4.293-10.133-1.96c-3.381,2.383-4.632,7.323-4.763,11.229
			c-0.133,4.002,2.907,11.72,3.685,13.626c-0.775,1.551-1.619,3.199-2.594,5.001c-1.739,3.155-3.731,6.7-6.156,10.409
			c-0.643,0.989-1.376,2.029-2.068,3.047c0.809-1.96,1.882-4.665,1.957-4.939c1.382-5.047,1.087-15.611-3.818-18.817
			c-3.534-2.311-8.032-0.667-9.896,2.93c-1.902,3.673-0.737,8.633,0.947,12.16c1.757,3.68,8.185,9.24,9.605,10.441
			c-1.567,2.234-3.229,4.493-5.099,6.746c-3.221,3.898-6.859,7.882-11.079,11.447c-0.142-0.117-0.116-0.095-0.258-0.212
			c0.967-1.716,2.917-5.373,3.043-5.693c1.928-4.863,2.794-15.396-1.729-19.122c-3.258-2.684-7.91-1.545-10.157,1.825
			c-2.295,3.442-1.682,8.501-0.394,12.191c1.483,4.253,8.372,11.408,8.631,11.676c-3.977,3.28-8.31,6.344-12.887,9.21
			c-3.314,2.081-6.757,4.053-10.228,5.999c0.711-1.187,3.274-5.982,3.419-6.348c1.928-4.864,2.794-15.397-1.729-19.123
			c-3.259-2.684-7.91-1.545-10.157,1.825c-2.295,3.442-1.681,8.501-0.395,12.191c1.447,4.152,8.018,11.037,8.573,11.616
			c-1.578,0.883-3.149,1.771-4.737,2.643c-5.183,2.851-10.391,5.684-15.445,8.639c-1.751,1.023-3.438,2.097-5.135,3.164
			c1.011-1.813,2.787-5.148,2.907-5.451c1.928-4.865,2.794-15.397-1.729-19.123c-3.259-2.684-7.911-1.544-10.157,1.826
			c-2.294,3.441-1.681,8.5-0.394,12.19c1.292,3.707,6.692,9.617,8.236,11.258c-2.808,1.797-5.553,3.641-8.171,5.586
			c-1.11,0.863-2.299,1.672-3.317,2.561c-1.046,0.874-2.082,1.739-3.106,2.595c-2.058,1.847-3.976,3.556-5.847,5.324
			c-0.952,0.887-1.829,1.745-2.744,2.619c1.3-1.684,3.314-4.385,3.47-4.651c2.643-4.516,5.095-14.796,1.188-19.164
			c-2.814-3.147-7.585-2.725-10.317,0.265c-0.346,0.381-0.652,0.792-0.922,1.23c-4.234,1.973-8.366,6.02-10.206,8.969
			c-0.177,0.284-1.894,3.879-2.732,5.734c0.33-1.645,0.653-3.279,1.024-4.987c0.516-2.459,1.142-5.041,1.734-7.547
			c0.355-1.288,0.713-2.588,1.074-3.902c0.338-1.334,0.822-2.563,1.23-3.869c0.641-1.898,1.397-3.822,2.148-5.746
			c2.472,0.677,9.761,2.536,13.505,1.977c3.865-0.577,8.629-2.387,10.609-6.018c1.939-3.557,0.784-8.205-3.107-9.841
			c-5.402-2.272-14.323,3.393-17.733,7.362c-0.111,0.129-0.744,1.042-1.485,2.133c0.79-1.854,1.571-3.71,2.435-5.563
			c2.447-5.258,5.104-10.537,7.744-15.839c0.55-1.105,1.083-2.216,1.629-3.323c2.078,0.579,9.957,2.664,13.879,2.079
			c3.865-0.577,8.629-2.386,10.609-6.019c1.939-3.556,0.784-8.205-3.107-9.841c-5.402-2.271-14.323,3.394-17.733,7.363
			c-0.122,0.142-0.876,1.234-1.709,2.464c1.393-2.9,2.745-5.81,3.997-8.738c2.196-5.119,4.082-10.28,5.513-15.424
			c0.731,0.212,9.919,2.841,14.279,2.191c3.865-0.577,8.629-2.387,10.609-6.019c1.938-3.557,0.784-8.204-3.107-9.841
			c-5.402-2.271-14.324,3.394-17.733,7.363c-0.242,0.282-2.941,4.255-3.858,5.706c0.017-0.061,0.042-0.123,0.058-0.184
			c1.453-5.414,2.171-10.761,2.606-15.865c0.441-5.091,0.424-9.925,0.292-14.369c-0.12-4.448-0.504-8.509-0.873-12.1
			c-0.215-1.943-0.448-3.716-0.682-5.369c0.02,0.014,0.103,0.07,0.103,0.07c0.09,0.06,2.031-6.789,2.105-7.235
			c0.843-5.165-0.563-15.639-5.778-18.311c-3.757-1.925-8.057,0.182-9.532,3.955c-1.506,3.853,0.176,8.664,2.221,11.993
			c2.097,3.412,8.89,8.172,10.591,9.332c0.209,1.721,0.413,3.562,0.595,5.602c0.29,3.59,0.584,7.646,0.608,12.077
			c0.009,1.181-0.029,2.451-0.044,3.683c-0.406-2.081-1.003-4.929-1.092-5.2c-1.631-4.971-7.706-13.619-13.566-13.587
			c-4.221,0.022-7.067,3.875-6.637,7.903c0.44,4.113,4.148,7.607,7.499,9.62c3.495,2.099,11.924,3.191,13.77,3.41
			c-0.074,2.728-0.214,5.528-0.53,8.439c-0.537,5.027-1.373,10.357-2.925,15.657c-0.183-0.019-0.15-0.016-0.334-0.035
			c-0.14-1.966-0.531-6.088-0.601-6.424c-1.075-5.121-6.163-14.383-11.991-14.996c-4.199-0.441-7.45,3.076-7.465,7.126
			c-0.015,4.137,3.287,8.018,6.396,10.386c3.583,2.729,13.276,4.896,13.641,4.977c-1.508,4.929-3.432,9.875-5.668,14.791
			c-1.616,3.564-3.399,7.107-5.221,10.646c-0.062-1.383-0.57-6.795-0.651-7.181c-1.075-5.121-6.164-14.383-11.991-14.996
			c-4.198-0.442-7.449,3.076-7.465,7.126c-0.015,4.137,3.287,8.018,6.396,10.385c3.498,2.664,12.776,4.783,13.559,4.958
			c-0.828,1.607-1.649,3.214-2.492,4.818c-2.751,5.237-5.531,10.473-8.116,15.726c-0.896,1.819-1.712,3.645-2.538,5.471
			c-0.157-2.07-0.515-5.831-0.583-6.151c-1.075-5.121-6.164-14.383-11.991-14.996c-4.199-0.441-7.449,3.076-7.465,7.127
			c-0.015,4.137,3.287,8.018,6.396,10.385c3.124,2.379,10.887,4.329,13.081,4.847c-1.351,3.047-2.624,6.101-3.733,9.166
			c-0.451,1.332-0.995,2.663-1.354,3.966c-0.39,1.305-0.776,2.599-1.158,3.879c-0.698,2.675-1.356,5.16-1.94,7.666
			c-0.305,1.266-0.563,2.465-0.844,3.698c0.155-2.121,0.345-5.485,0.328-5.794c-0.286-5.225-3.913-15.151-9.581-16.639
			c-4.083-1.073-7.83,1.911-8.458,5.913c-0.641,4.086,2.035,8.423,4.749,11.234c2.993,3.1,11.538,6.518,12.587,6.93
			c-0.671,3.021-1.296,5.969-1.83,8.737c-0.996,5.105-1.778,9.719-2.398,13.714h3.807c0.515-3.84,1.167-8.236,2.005-13.088
			c0.428-2.512,0.924-5.167,1.46-7.891c1.098,0.142,9.608,1.181,13.897,0.112c1.823,3.497,4.209,6.944,4.632,7.547
			c-2.226,2.15-4.374,4.263-6.346,6.278c-2.452,2.493-4.701,4.855-6.738,7.043h4.956c1.35-1.486,2.773-3.031,4.286-4.637
			c1.742-1.859,3.621-3.8,5.571-5.777c0.868,0.75,7.854,6.711,11.983,7.918c3.752,1.095,8.835,1.448,12.155-1.021
			c3.251-2.417,4.149-7.121,1.301-10.237c-3.954-4.326-14.428-2.92-19.186-0.744c-0.305,0.139-3.72,2.19-5.442,3.275
			c1.182-1.19,2.353-2.376,3.605-3.594c1.787-1.767,3.734-3.575,5.609-5.339c1.007-0.878,2.023-1.766,3.049-2.662
			c1.017-0.927,2.099-1.685,3.159-2.548c1.581-1.23,3.274-2.418,4.961-3.607c1.688,1.928,6.743,7.5,10.173,9.098
			c3.543,1.651,8.514,2.77,12.169,0.833c3.579-1.897,5.18-6.41,2.837-9.923c-3.252-4.874-13.818-5.071-18.852-3.641
			c-0.164,0.047-1.195,0.459-2.416,0.96c1.682-1.111,3.358-2.228,5.1-3.296c4.941-3.036,10.07-5.974,15.197-8.94
			c1.068-0.618,2.126-1.251,3.192-1.874c1.413,1.63,6.835,7.715,10.429,9.39c3.543,1.651,8.514,2.77,12.169,0.832
			c3.579-1.896,5.18-6.41,2.837-9.922c-3.252-4.874-13.818-5.071-18.852-3.642c-0.18,0.051-1.411,0.547-2.784,1.113
			c2.762-1.65,5.495-3.332,8.155-5.083c4.656-3.057,9.076-6.322,13.107-9.823c0.492,0.58,6.705,7.842,10.701,9.704
			c3.542,1.652,8.514,2.77,12.168,0.833c3.58-1.897,5.18-6.411,2.837-9.923c-3.252-4.874-13.819-5.071-18.852-3.642
			c-0.357,0.102-4.8,1.926-6.364,2.631c0.047-0.042,0.102-0.079,0.15-0.121c4.198-3.714,7.747-7.778,10.926-11.796
			c3.177-4.003,5.828-8.044,8.17-11.823c2.354-3.776,4.274-7.376,5.947-10.574c0.892-1.739,1.677-3.347,2.392-4.854
			c0.009,0.022,0.047,0.115,0.047,0.115c0.042,0.099,5.44-4.542,5.747-4.874C719.633,88.899,724.238,79.387,721.363,74.282z"/>
	</g>
</g>
<g id="Gears">
	<g>
		<path style="fill:#92E3A9;stroke:#263238;stroke-linecap:round;stroke-linejoin:round;stroke-miterlimit:10;" d="M126.261,364.905
			v-14.081l-11.98-0.632c-0.523-2.281-1.325-4.454-2.37-6.483l8.038-8.934l-9.957-9.957l-8.568,7.709
			c-2.051-1.228-4.275-2.195-6.625-2.866l-0.619-11.728H80.1l-0.619,11.728c-2.257,0.645-4.397,1.565-6.38,2.726l-9.05-8.142
			l-9.957,9.957l8.377,9.31c-0.96,1.829-1.726,3.775-2.263,5.815l-12.999,0.686v14.081l13.358,0.705
			c0.559,1.78,1.294,3.481,2.182,5.087l-9.229,10.257l9.957,9.957l10.269-9.239c1.519,0.835,3.126,1.529,4.801,2.072l0.742,14.052
			H93.37l0.716-13.568c1.799-0.462,3.527-1.099,5.166-1.892l10.167,9.148l9.957-9.957l-8.596-9.554
			c1.087-1.741,1.985-3.611,2.67-5.582L126.261,364.905z M87.141,371.702c-8.43,0-15.264-6.834-15.264-15.264
			c0-8.43,6.834-15.264,15.264-15.264c8.43,0,15.264,6.834,15.264,15.264C102.405,364.867,95.571,371.702,87.141,371.702z"/>
		<path style="fill:#FFFFFF;stroke:#263238;stroke-linecap:round;stroke-linejoin:round;stroke-miterlimit:10;" d="M102.685,291.308
			l-1.352-12.082l-10.34,0.608c-0.668-1.907-1.564-3.695-2.656-5.335l6.039-8.437l-9.499-7.588l-6.611,7.437
			c-1.878-0.857-3.879-1.473-5.959-1.823l-1.657-10.004l-12.082,1.352l0.595,10.123c-1.875,0.77-3.622,1.765-5.213,2.951
			l-8.547-6.118l-7.588,9.499l8.081,7.184c-0.648,1.661-1.118,3.405-1.384,5.207l-11.088,1.837l1.352,12.082l11.53-0.677
			c0.651,1.474,1.445,2.863,2.36,4.156l-6.934,9.687l9.499,7.588l7.924-8.913c1.384,0.571,2.829,1.012,4.319,1.317l1.985,11.986
			l12.082-1.352l-0.688-11.71c1.499-0.569,2.921-1.281,4.251-2.119l9.602,6.873l7.588-9.499l-8.293-7.372
			c0.765-1.598,1.357-3.289,1.755-5.045L102.685,291.308z M69.771,300.895c-7.233,0.809-13.753-4.398-14.562-11.632
			c-0.809-7.233,4.399-13.753,11.632-14.562c7.233-0.809,13.753,4.398,14.562,11.632C82.212,293.566,77.004,300.086,69.771,300.895z
			"/>
	</g>
</g>
<g id="Graphics">
	<g>
		<path style="fill:none;stroke:#263238;stroke-linecap:round;stroke-linejoin:round;stroke-miterlimit:10;" d="M722.581,260.543
			h-13.278c-3.021,0-5.47-2.449-5.47-5.47v-13.278c0-3.021,2.449-5.47,5.47-5.47h13.278c3.021,0,5.47,2.449,5.47,5.47v13.278
			C728.052,258.093,725.602,260.543,722.581,260.543z"/>
		<path style="fill:none;stroke:#263238;stroke-linecap:round;stroke-linejoin:round;stroke-miterlimit:10;" d="M722.581,230.453
			h-13.278c-3.021,0-5.47-2.449-5.47-5.47v-13.278c0-3.021,2.449-5.47,5.47-5.47h13.278c3.021,0,5.47,2.449,5.47,5.47v13.278
			C728.052,228.004,725.602,230.453,722.581,230.453z"/>
		<path style="fill:none;stroke:#263238;stroke-linecap:round;stroke-linejoin:round;stroke-miterlimit:10;" d="M722.581,200.364
			h-13.278c-3.021,0-5.47-2.449-5.47-5.47v-13.278c0-3.021,2.449-5.47,5.47-5.47h13.278c3.021,0,5.47,2.449,5.47,5.47v13.278
			C728.052,197.915,725.602,200.364,722.581,200.364z"/>
		<path style="fill:none;stroke:#263238;stroke-linecap:round;stroke-linejoin:round;stroke-miterlimit:10;" d="M694.36,260.543
			h-13.278c-3.021,0-5.47-2.449-5.47-5.47v-13.278c0-3.021,2.449-5.47,5.47-5.47h13.278c3.021,0,5.47,2.449,5.47,5.47v13.278
			C699.831,258.093,697.381,260.543,694.36,260.543z"/>
	</g>
	<path style="fill:none;stroke:#263238;stroke-linecap:round;stroke-linejoin:round;stroke-miterlimit:10;" d="M49.889,103.406
		l5.173-5.173c1.562-1.563,1.562-4.095,0-5.657c-1.563-1.562-4.095-1.562-5.657,0l-5.173,5.173l-5.173-5.173
		c-1.563-1.562-4.095-1.562-5.657,0c-1.562,1.563-1.562,4.095,0,5.657l5.173,5.173l-5.173,5.173c-1.562,1.563-1.562,4.095,0,5.657
		c0.781,0.781,1.805,1.171,2.829,1.171s2.047-0.391,2.829-1.171l5.173-5.173l5.173,5.173c0.781,0.781,1.805,1.171,2.829,1.171
		c1.024,0,2.047-0.391,2.829-1.171c1.562-1.563,1.562-4.095,0-5.657L49.889,103.406z"/>
	<path style="fill:none;stroke:#263238;stroke-linecap:round;stroke-linejoin:round;stroke-miterlimit:10;" d="M81.487,80.418
		l3.981-3.981c1.202-1.203,1.202-3.151,0-4.354c-1.202-1.202-3.151-1.202-4.354,0l-3.981,3.981l-3.981-3.981
		c-1.202-1.202-3.151-1.202-4.354,0c-1.202,1.202-1.202,3.151,0,4.354l3.981,3.981L68.798,84.4c-1.202,1.202-1.202,3.151,0,4.354
		c0.601,0.601,1.389,0.901,2.177,0.901s1.576-0.301,2.177-0.901l3.981-3.981l3.981,3.981c0.601,0.601,1.389,0.901,2.177,0.901
		c0.788,0,1.576-0.301,2.177-0.901c1.202-1.202,1.202-3.151,0-4.354L81.487,80.418z"/>
	<path style="fill:none;stroke:#263238;stroke-linecap:round;stroke-linejoin:round;stroke-miterlimit:10;" d="M116.189,430.503
		l3.981-3.981c1.202-1.203,1.202-3.151,0-4.354c-1.202-1.202-3.151-1.202-4.354,0l-3.981,3.981l-3.981-3.981
		c-1.202-1.202-3.151-1.202-4.354,0c-1.202,1.202-1.202,3.151,0,4.354l3.981,3.981l-3.981,3.981c-1.202,1.203-1.202,3.151,0,4.354
		c0.601,0.601,1.389,0.902,2.177,0.902c0.788,0,1.576-0.301,2.177-0.902l3.981-3.981l3.981,3.981
		c0.601,0.601,1.389,0.902,2.177,0.902c0.788,0,1.576-0.301,2.177-0.902c1.202-1.202,1.202-3.151,0-4.354L116.189,430.503z"/>
	<path style="fill:none;stroke:#263238;stroke-linecap:round;stroke-linejoin:round;stroke-miterlimit:10;" d="M672.057,393.854
		l3.981-3.981c1.202-1.202,1.202-3.151,0-4.354c-1.202-1.202-3.151-1.202-4.354,0l-3.981,3.981l-3.981-3.981
		c-1.203-1.202-3.151-1.202-4.354,0c-1.202,1.203-1.202,3.151,0,4.354l3.981,3.981l-3.981,3.981c-1.202,1.202-1.202,3.151,0,4.354
		c0.601,0.601,1.389,0.901,2.177,0.901c0.788,0,1.576-0.301,2.177-0.901l3.981-3.981l3.981,3.981
		c0.601,0.601,1.389,0.901,2.177,0.901c0.788,0,1.576-0.301,2.177-0.901c1.202-1.202,1.202-3.151,0-4.354L672.057,393.854z"/>
	<path style="fill:none;stroke:#263238;stroke-linecap:round;stroke-linejoin:round;stroke-miterlimit:10;" d="M697.144,393.854
		l3.981-3.981c1.202-1.202,1.202-3.151,0-4.354c-1.203-1.202-3.151-1.202-4.354,0l-3.981,3.981l-3.981-3.981
		c-1.203-1.202-3.151-1.202-4.354,0c-1.202,1.203-1.202,3.151,0,4.354l3.981,3.981l-3.981,3.981c-1.202,1.202-1.202,3.151,0,4.354
		c0.601,0.601,1.389,0.901,2.177,0.901c0.788,0,1.576-0.301,2.177-0.901l3.981-3.981l3.981,3.981
		c0.601,0.601,1.389,0.901,2.177,0.901c0.788,0,1.576-0.301,2.177-0.901c1.202-1.202,1.202-3.151,0-4.354L697.144,393.854z"/>
	<path style="fill:none;stroke:#263238;stroke-linecap:round;stroke-linejoin:round;stroke-miterlimit:10;" d="M682.466,69.424
		l3.981-3.981c1.202-1.202,1.202-3.151,0-4.354c-1.202-1.202-3.151-1.202-4.354,0l-3.981,3.981l-3.981-3.981
		c-1.202-1.202-3.151-1.202-4.354,0c-1.202,1.202-1.202,3.151,0,4.354l3.981,3.981l-3.981,3.981c-1.202,1.202-1.202,3.151,0,4.354
		c0.601,0.601,1.389,0.902,2.177,0.902s1.576-0.301,2.177-0.902l3.981-3.981l3.981,3.981c0.601,0.601,1.389,0.902,2.177,0.902
		s1.576-0.301,2.177-0.902c1.202-1.202,1.202-3.151,0-4.354L682.466,69.424z"/>
</g>
<g id="Web_Page">
	<g>
		
			<rect x="173.768" y="53.376" style="fill:#FFFFFF;stroke:#263238;stroke-linecap:round;stroke-linejoin:round;stroke-miterlimit:10;" width="428.527" height="367.084"/>
		
			<rect x="173.768" y="53.376" style="fill:#92E3A9;stroke:#263238;stroke-linecap:round;stroke-linejoin:round;stroke-miterlimit:10;" width="218.758" height="367.084"/>
		<g>
			
				<rect x="399.599" y="333.145" style="fill:#92E3A9;stroke:#263238;stroke-linecap:round;stroke-linejoin:round;stroke-miterlimit:10;" width="184.222" height="73.377"/>
			<g>
				
					<ellipse transform="matrix(0.9735 -0.2285 0.2285 0.9735 -69.725 104.8529)" style="fill:#263238;stroke:#263238;stroke-linecap:round;stroke-linejoin:round;stroke-miterlimit:10;" cx="417.963" cy="353.546" rx="12.899" ry="12.899"/>
				<path style="fill:#FFFFFF;stroke:#263238;stroke-linecap:round;stroke-linejoin:round;stroke-miterlimit:10;" d="
					M422.934,349.185c0-2.745-2.226-4.971-4.971-4.971c-2.745,0-4.971,2.226-4.971,4.971c0,2.745,2.225,4.971,4.971,4.971
					C420.708,354.156,422.934,351.931,422.934,349.185z"/>
				<path style="fill:#FFFFFF;stroke:#263238;stroke-linecap:round;stroke-linejoin:round;stroke-miterlimit:10;" d="
					M417.963,355.103c-4.536,0-8.212,3.677-8.212,8.212c0,0.063,0.008,0.124,0.009,0.186c2.229,1.839,5.087,2.944,8.203,2.944
					c3.116,0,5.974-1.105,8.203-2.944c0.001-0.063,0.009-0.123,0.009-0.186C426.175,358.779,422.499,355.103,417.963,355.103z"/>
			</g>
			
				<line style="fill:none;stroke:#263238;stroke-linecap:round;stroke-linejoin:round;stroke-miterlimit:10;" x1="442.055" y1="347.985" x2="513.945" y2="347.985"/>
			
				<line style="fill:none;stroke:#263238;stroke-linecap:round;stroke-linejoin:round;stroke-miterlimit:10;" x1="470.508" y1="360.899" x2="561.728" y2="360.899"/>
			
				<line style="fill:none;stroke:#263238;stroke-linecap:round;stroke-linejoin:round;stroke-miterlimit:10;" x1="442.055" y1="360.899" x2="465.151" y2="360.899"/>
			
				<line style="fill:none;stroke:#263238;stroke-linecap:round;stroke-linejoin:round;stroke-miterlimit:10;" x1="442.055" y1="373.383" x2="561.728" y2="373.383"/>
			
				<line style="fill:none;stroke:#263238;stroke-linecap:round;stroke-linejoin:round;stroke-miterlimit:10;" x1="552.921" y1="385.867" x2="561.728" y2="385.867"/>
			
				<line style="fill:none;stroke:#263238;stroke-linecap:round;stroke-linejoin:round;stroke-miterlimit:10;" x1="442.055" y1="385.867" x2="546.74" y2="385.867"/>
		</g>
		<g>
			<g>
				<rect x="186.481" y="187.309" style="fill:#FFFFFF;" width="98.764" height="58.288"/>
				<g>
					<polyline style="fill:none;stroke:#263238;stroke-linecap:round;stroke-linejoin:round;" points="285.245,244.097 
						285.245,245.597 283.745,245.597 					"/>
					
						<line style="fill:none;stroke:#263238;stroke-linecap:round;stroke-linejoin:round;stroke-dasharray:3.0892,3.0892;" x1="280.656" y1="245.597" x2="189.526" y2="245.597"/>
					<polyline style="fill:none;stroke:#263238;stroke-linecap:round;stroke-linejoin:round;" points="187.981,245.597 
						186.481,245.597 186.481,244.097 					"/>
					
						<line style="fill:none;stroke:#263238;stroke-linecap:round;stroke-linejoin:round;stroke-dasharray:2.9099,2.9099;" x1="186.481" y1="241.187" x2="186.481" y2="190.263"/>
					<polyline style="fill:none;stroke:#263238;stroke-linecap:round;stroke-linejoin:round;" points="186.481,188.809 
						186.481,187.309 187.981,187.309 					"/>
					
						<line style="fill:none;stroke:#263238;stroke-linecap:round;stroke-linejoin:round;stroke-dasharray:3.0892,3.0892;" x1="191.07" y1="187.309" x2="282.201" y2="187.309"/>
					<polyline style="fill:none;stroke:#263238;stroke-linecap:round;stroke-linejoin:round;" points="283.745,187.309 
						285.245,187.309 285.245,188.809 					"/>
					
						<line style="fill:none;stroke:#263238;stroke-linecap:round;stroke-linejoin:round;stroke-dasharray:2.9099,2.9099;" x1="285.245" y1="191.718" x2="285.245" y2="242.642"/>
				</g>
			</g>
			<g>
				<rect x="293.571" y="187.309" style="fill:#FFFFFF;" width="98.764" height="58.288"/>
				<g>
					<polyline style="fill:none;stroke:#263238;stroke-linecap:round;stroke-linejoin:round;" points="392.335,244.097 
						392.335,245.597 390.835,245.597 					"/>
					
						<line style="fill:none;stroke:#263238;stroke-linecap:round;stroke-linejoin:round;stroke-dasharray:3.0892,3.0892;" x1="387.746" y1="245.597" x2="296.616" y2="245.597"/>
					<polyline style="fill:none;stroke:#263238;stroke-linecap:round;stroke-linejoin:round;" points="295.071,245.597 
						293.571,245.597 293.571,244.097 					"/>
					
						<line style="fill:none;stroke:#263238;stroke-linecap:round;stroke-linejoin:round;stroke-dasharray:2.9099,2.9099;" x1="293.571" y1="241.187" x2="293.571" y2="190.263"/>
					<polyline style="fill:none;stroke:#263238;stroke-linecap:round;stroke-linejoin:round;" points="293.571,188.809 
						293.571,187.309 295.071,187.309 					"/>
					
						<line style="fill:none;stroke:#263238;stroke-linecap:round;stroke-linejoin:round;stroke-dasharray:3.0892,3.0892;" x1="298.16" y1="187.309" x2="389.29" y2="187.309"/>
					<polyline style="fill:none;stroke:#263238;stroke-linecap:round;stroke-linejoin:round;" points="390.835,187.309 
						392.335,187.309 392.335,188.809 					"/>
					
						<line style="fill:none;stroke:#263238;stroke-linecap:round;stroke-linejoin:round;stroke-dasharray:2.9099,2.9099;" x1="392.335" y1="191.718" x2="392.335" y2="242.642"/>
				</g>
			</g>
		</g>
		<g>
			
				<rect x="173.768" y="53.376" style="fill:#263238;stroke:#263238;stroke-linecap:round;stroke-linejoin:round;stroke-miterlimit:10;" width="428.527" height="17.211"/>
			
				<rect x="392.141" y="53.376" style="fill:#92E3A9;stroke:#263238;stroke-linecap:round;stroke-linejoin:round;stroke-miterlimit:10;" width="210.153" height="17.211"/>
			<g>
				
					<circle style="fill:#FFFFFF;stroke:#263238;stroke-linecap:round;stroke-linejoin:round;stroke-miterlimit:10;" cx="559.462" cy="62.226" r="3.871"/>
				
					<circle style="fill:#FFFFFF;stroke:#263238;stroke-linecap:round;stroke-linejoin:round;stroke-miterlimit:10;" cx="573.841" cy="62.226" r="3.871"/>
				
					<circle style="fill:#263238;stroke:#263238;stroke-linecap:round;stroke-linejoin:round;stroke-miterlimit:10;" cx="588.219" cy="62.226" r="3.871"/>
			</g>
		</g>
		<g>
			<rect x="186.655" y="109.099" style="fill:#FFFFFF;" width="205.854" height="58.288"/>
			<g>
				<polyline style="fill:none;stroke:#263238;stroke-linecap:round;stroke-linejoin:round;" points="392.509,165.887 
					392.509,167.387 391.009,167.387 				"/>
				
					<line style="fill:none;stroke:#263238;stroke-linecap:round;stroke-linejoin:round;stroke-dasharray:3.0277,3.0277;" x1="387.981" y1="167.387" x2="189.669" y2="167.387"/>
				<polyline style="fill:none;stroke:#263238;stroke-linecap:round;stroke-linejoin:round;" points="188.155,167.387 
					186.655,167.387 186.655,165.887 				"/>
				
					<line style="fill:none;stroke:#263238;stroke-linecap:round;stroke-linejoin:round;stroke-dasharray:2.9099,2.9099;" x1="186.655" y1="162.977" x2="186.655" y2="112.054"/>
				<polyline style="fill:none;stroke:#263238;stroke-linecap:round;stroke-linejoin:round;" points="186.655,110.599 
					186.655,109.099 188.155,109.099 				"/>
				
					<line style="fill:none;stroke:#263238;stroke-linecap:round;stroke-linejoin:round;stroke-dasharray:3.0277,3.0277;" x1="191.183" y1="109.099" x2="389.495" y2="109.099"/>
				<polyline style="fill:none;stroke:#263238;stroke-linecap:round;stroke-linejoin:round;" points="391.009,109.099 
					392.509,109.099 392.509,110.599 				"/>
				
					<line style="fill:none;stroke:#263238;stroke-linecap:round;stroke-linejoin:round;stroke-dasharray:2.9099,2.9099;" x1="392.509" y1="113.509" x2="392.509" y2="164.432"/>
			</g>
		</g>
		
			<ellipse transform="matrix(0.9771 -0.2127 0.2127 0.9771 -75.1791 87.4109)" style="fill:#FFFFFF;stroke:#263238;stroke-linecap:round;stroke-linejoin:round;stroke-miterlimit:10;stroke-dasharray:3;" cx="368.725" cy="393.162" rx="14.757" ry="14.757"/>
		
			<ellipse transform="matrix(0.7586 -0.6516 0.6516 0.7586 -178.5587 304.3988)" style="fill:#FFFFFF;stroke:#263238;stroke-linecap:round;stroke-linejoin:round;stroke-miterlimit:10;stroke-dasharray:3;" cx="321.504" cy="393.162" rx="14.757" ry="14.757"/>
		
			<path style="fill:#FFFFFF;stroke:#263238;stroke-linecap:round;stroke-linejoin:round;stroke-miterlimit:10;stroke-dasharray:3;" d="
			M233.1,99.794h-38.83c-4.035,0-7.307-3.271-7.307-7.307l0,0c0-4.035,3.271-7.307,7.307-7.307h38.83
			c4.035,0,7.307,3.271,7.307,7.307l0,0C240.407,96.523,237.136,99.794,233.1,99.794z"/>
		
			<path style="fill:#FFFFFF;stroke:#263238;stroke-linecap:round;stroke-linejoin:round;stroke-miterlimit:10;stroke-dasharray:3;" d="
			M303.746,99.794h-38.83c-4.035,0-7.307-3.271-7.307-7.307l0,0c0-4.035,3.271-7.307,7.307-7.307h38.83
			c4.035,0,7.307,3.271,7.307,7.307l0,0C311.053,96.523,307.781,99.794,303.746,99.794z"/>
		
			<path style="fill:#FFFFFF;stroke:#263238;stroke-linecap:round;stroke-linejoin:round;stroke-miterlimit:10;stroke-dasharray:3;" d="
			M374.392,99.794h-38.83c-4.035,0-7.307-3.271-7.307-7.307l0,0c0-4.035,3.271-7.307,7.307-7.307h38.83
			c4.035,0,7.307,3.271,7.307,7.307l0,0C381.698,96.523,378.427,99.794,374.392,99.794z"/>
		<path style="fill:#92E3A9;stroke:#263238;stroke-linecap:round;stroke-linejoin:round;stroke-miterlimit:10;" d="M445.037,99.794
			h-38.83c-4.035,0-7.307-3.271-7.307-7.307l0,0c0-4.035,3.271-7.307,7.307-7.307h38.83c4.035,0,7.307,3.271,7.307,7.307l0,0
			C452.344,96.523,449.073,99.794,445.037,99.794z"/>
		<path style="fill:#92E3A9;stroke:#263238;stroke-linecap:round;stroke-linejoin:round;stroke-miterlimit:10;" d="M515.683,99.794
			h-38.83c-4.035,0-7.307-3.271-7.307-7.307l0,0c0-4.035,3.271-7.307,7.307-7.307h38.83c4.035,0,7.307,3.271,7.307,7.307l0,0
			C522.99,96.523,519.719,99.794,515.683,99.794z"/>
		<path style="fill:#92E3A9;stroke:#263238;stroke-linecap:round;stroke-linejoin:round;stroke-miterlimit:10;" d="M586.329,99.794
			h-38.83c-4.035,0-7.307-3.271-7.307-7.307l0,0c0-4.035,3.271-7.307,7.307-7.307h38.83c4.035,0,7.307,3.271,7.307,7.307l0,0
			C593.635,96.523,590.364,99.794,586.329,99.794z"/>
		<line style="fill:none;stroke:#263238;stroke-miterlimit:10;" x1="392.335" y1="27.302" x2="392.335" y2="439.682"/>
		<g>
			<g>
				
					<line style="fill:none;stroke:#263238;stroke-linecap:round;stroke-linejoin:round;stroke-miterlimit:10;" x1="453.614" y1="187.06" x2="462.625" y2="187.06"/>
				
					<line style="fill:none;stroke:#263238;stroke-linecap:round;stroke-linejoin:round;stroke-miterlimit:10;" x1="404.388" y1="187.06" x2="447.845" y2="187.06"/>
				
					<line style="fill:none;stroke:#263238;stroke-linecap:round;stroke-linejoin:round;stroke-miterlimit:10;" x1="404.388" y1="198.865" x2="462.625" y2="198.865"/>
				
					<line style="fill:none;stroke:#263238;stroke-linecap:round;stroke-linejoin:round;stroke-miterlimit:10;" x1="418.176" y1="210.67" x2="462.625" y2="210.67"/>
				
					<line style="fill:none;stroke:#263238;stroke-linecap:round;stroke-linejoin:round;stroke-miterlimit:10;" x1="404.388" y1="210.67" x2="412.408" y2="210.67"/>
				
					<line style="fill:none;stroke:#263238;stroke-linecap:round;stroke-linejoin:round;stroke-miterlimit:10;" x1="404.388" y1="222.475" x2="462.625" y2="222.475"/>
				
					<line style="fill:none;stroke:#263238;stroke-linecap:round;stroke-linejoin:round;stroke-miterlimit:10;" x1="404.388" y1="234.279" x2="462.625" y2="234.279"/>
				
					<line style="fill:none;stroke:#263238;stroke-linecap:round;stroke-linejoin:round;stroke-miterlimit:10;" x1="404.388" y1="246.084" x2="462.625" y2="246.084"/>
				
					<line style="fill:none;stroke:#263238;stroke-linecap:round;stroke-linejoin:round;stroke-miterlimit:10;" x1="442.076" y1="257.889" x2="462.625" y2="257.889"/>
				
					<line style="fill:none;stroke:#263238;stroke-linecap:round;stroke-linejoin:round;stroke-miterlimit:10;" x1="404.388" y1="257.889" x2="434.659" y2="257.889"/>
				
					<line style="fill:none;stroke:#263238;stroke-linecap:round;stroke-linejoin:round;stroke-miterlimit:10;" x1="404.388" y1="269.694" x2="490.17" y2="269.694"/>
				
					<line style="fill:none;stroke:#263238;stroke-linecap:round;stroke-linejoin:round;stroke-miterlimit:10;" x1="404.388" y1="281.498" x2="490.17" y2="281.498"/>
				
					<line style="fill:none;stroke:#263238;stroke-linecap:round;stroke-linejoin:round;stroke-miterlimit:10;" x1="438.779" y1="293.303" x2="490.17" y2="293.303"/>
				
					<line style="fill:none;stroke:#263238;stroke-linecap:round;stroke-linejoin:round;stroke-miterlimit:10;" x1="404.388" y1="293.303" x2="432.186" y2="293.303"/>
				
					<line style="fill:none;stroke:#263238;stroke-linecap:round;stroke-linejoin:round;stroke-miterlimit:10;" x1="404.388" y1="305.108" x2="490.17" y2="305.108"/>
				
					<line style="fill:none;stroke:#263238;stroke-linecap:round;stroke-linejoin:round;stroke-miterlimit:10;" x1="480.398" y1="316.913" x2="490.17" y2="316.913"/>
				
					<line style="fill:none;stroke:#263238;stroke-linecap:round;stroke-linejoin:round;stroke-miterlimit:10;" x1="404.388" y1="316.913" x2="474.629" y2="316.913"/>
			</g>
			<g>
				
					<line style="fill:none;stroke:#263238;stroke-linecap:round;stroke-linejoin:round;stroke-miterlimit:10;" x1="501.188" y1="269.694" x2="586.969" y2="269.694"/>
				
					<line style="fill:none;stroke:#263238;stroke-linecap:round;stroke-linejoin:round;stroke-miterlimit:10;" x1="544.68" y1="281.498" x2="586.969" y2="281.498"/>
				
					<line style="fill:none;stroke:#263238;stroke-linecap:round;stroke-linejoin:round;stroke-miterlimit:10;" x1="501.188" y1="281.498" x2="539.323" y2="281.498"/>
				
					<line style="fill:none;stroke:#263238;stroke-linecap:round;stroke-linejoin:round;stroke-miterlimit:10;" x1="501.188" y1="293.303" x2="586.969" y2="293.303"/>
				
					<line style="fill:none;stroke:#263238;stroke-linecap:round;stroke-linejoin:round;stroke-miterlimit:10;" x1="563.222" y1="305.108" x2="586.969" y2="305.108"/>
				
					<line style="fill:none;stroke:#263238;stroke-linecap:round;stroke-linejoin:round;stroke-miterlimit:10;" x1="501.188" y1="305.108" x2="555.393" y2="305.108"/>
				
					<line style="fill:none;stroke:#263238;stroke-linecap:round;stroke-linejoin:round;stroke-miterlimit:10;" x1="501.188" y1="316.913" x2="586.969" y2="316.913"/>
			</g>
		</g>
	</g>
</g>
<g id="Video">
	<g>
		
			<rect x="649.38" y="299.813" style="fill:#FFFFFF;stroke:#263238;stroke-linecap:round;stroke-linejoin:round;stroke-miterlimit:10;" width="82.248" height="56.684"/>
		
			<rect x="649.38" y="356.497" style="fill:#92E3A9;stroke:#263238;stroke-linecap:round;stroke-linejoin:round;stroke-miterlimit:10;" width="82.248" height="7.968"/>
		<polygon style="fill:#263238;stroke:#263238;stroke-linecap:round;stroke-linejoin:round;stroke-miterlimit:10;" points="
			706.843,329.475 679.197,313.514 679.197,345.437 		"/>
	</g>
</g>
<g id="Text">
	<g>
		<path style="fill:#263238;" d="M408.358,168.695V118.94h-9.389v-5.756h26.248v5.756h-9.115v49.755H408.358z"/>
		<path style="fill:#263238;" d="M430.562,168.695v-55.512h21.52v5.756h-13.775v18.367h11.171v5.482h-11.171v20.354h13.912v5.551
			H430.562z"/>
		<path style="fill:#263238;" d="M455.028,168.695l11.582-29.058l-11.376-26.454h7.196l8.429,19.6l7.676-19.6h7.196l-11.65,27.07
			l12.199,28.441h-7.196l-9.047-20.903l-7.813,20.903H455.028z"/>
		<path style="fill:#263238;" d="M497.587,168.695V118.94h-9.389v-5.756h26.248v5.756h-9.115v49.755H497.587z"/>
	</g>
</g>
<g id="Character_2">
	<g>
		<polygon style="fill:#263238;stroke:#263238;stroke-linecap:round;stroke-linejoin:round;stroke-miterlimit:10;" points="
			602.295,138.609 531.557,135.167 526.796,232.994 602.295,236.668 		"/>
		<g>
			<g>
				
					<rect x="523.929" y="128.142" transform="matrix(0.9988 0.0486 -0.0486 0.9988 9.3102 -28.6229)" style="fill:#FFFFFF;stroke:#263238;stroke-linecap:round;stroke-linejoin:round;stroke-miterlimit:10;" width="138.465" height="97.943"/>
				<polygon style="fill:#92E3A9;stroke:#263238;stroke-linecap:round;stroke-linejoin:round;stroke-miterlimit:10;" points="
					662.242,181.921 637.654,157.689 597.225,196.667 577.017,181.497 521.63,222.662 659.932,229.392 				"/>
				
					<ellipse transform="matrix(0.9679 -0.2514 0.2514 0.9679 -20.2354 144.9388)" style="fill:#92E3A9;stroke:#263238;stroke-linecap:round;stroke-linejoin:round;stroke-miterlimit:10;" cx="557.245" cy="151.681" rx="13.708" ry="13.708"/>
			</g>
			<g>
				<g>
					<path style="fill:#FFFFFF;stroke:#263238;stroke-linecap:round;stroke-linejoin:round;stroke-miterlimit:10;" d="
						M598.282,177.82c0,0-4.756,2.29-5.636,4.932s-1.057,6.517-2.29,7.75c-1.233,1.233-7.926,4.404-7.926,5.813
						c0,1.409,2.29,4.051,2.29,4.051s-0.528,11.097,1.233,12.858c1.761,1.761,8.983,2.466,8.983,2.466l-0.176,7.75
						c0,0,4.227-0.176,11.273,0c7.045,0.176,9.688,0.528,9.688,0.528l0.176-14.796c0,0,8.631-5.108,8.983-13.21
						c0.352-8.102-5.989-15.5-12.858-18.318S598.282,177.82,598.282,177.82z"/>
					<path style="fill:#263238;stroke:#263238;stroke-linecap:round;stroke-linejoin:round;stroke-miterlimit:10;" d="
						M606.913,171.655c0,0,1.409-4.227-1.057-4.404c-2.466-0.176-12.682,7.398-10.921,10.568s8.455,1.585,7.926,3.347
						c-0.528,1.761-4.932,4.051-4.227,6.165c0.705,2.114,1.938,5.46,1.761,5.989c-0.176,0.528-3.523,2.114-3.171,3.347
						s-0.176,1.938,1.057,2.114c1.233,0.176,4.403-4.051,6.693-2.114c2.29,1.938,3.523,7.574,2.29,10.04
						c-1.233,2.466-1.938,3.347,0,5.284c1.938,1.938,8.983,3.17,10.04,1.585c1.057-1.585,10.04-6.693,11.625-12.506
						c1.585-5.813,1.233-14.972-3.347-19.199c-4.58-4.227-10.745-7.574-10.745-7.574s2.29-2.642,0.352-3.347
						C613.254,170.246,608.322,170.598,606.913,171.655z"/>
					<path style="fill:none;stroke:#263238;stroke-linecap:round;stroke-linejoin:round;stroke-miterlimit:10;" d="M600.623,198.148
						c0,0,3.823-3.032,5.009,0.659c1.186,3.691-3.032,8.568-5.405,8.964c-2.373,0.395-4.35-1.977-4.086-2.373"/>
					<path style="fill:none;stroke:#263238;stroke-linecap:round;stroke-linejoin:round;stroke-miterlimit:10;" d="M593.241,187.207
						c0,0,1.846-1.186,3.164,1.186"/>
					<path style="fill:#263238;" d="M594.287,192.005c-0.179,1.188-0.675,2.098-1.107,2.033c-0.432-0.065-0.637-1.081-0.458-2.269
						c0.179-1.188,0.675-2.098,1.107-2.033C594.261,189.801,594.466,190.817,594.287,192.005z"/>
					<path style="fill:none;stroke:#263238;stroke-linecap:round;stroke-linejoin:round;stroke-miterlimit:10;" d="M585.595,203.026
						c0,0,3.691,1.318,6.064-1.582"/>
				</g>
				<path style="fill:#BDBDBD;stroke:#263238;stroke-linecap:round;stroke-linejoin:round;stroke-miterlimit:10;" d="
					M618.482,219.656c0,0-15.886-1.765-18.828-1.373c-2.942,0.392-9.414,3.138-11.571,4.511c-2.157,1.373-3.334,2.746-3.334,2.746
					s17.063-1.373,23.142-0.588c6.08,0.785,15.69,3.334,15.69,3.334S620.639,220.44,618.482,219.656z"/>
				<path style="fill:#FFFFFF;stroke:#263238;stroke-linecap:round;stroke-linejoin:round;stroke-miterlimit:10;" d="
					M658.099,244.171c0,0-4.903-9.218-5.099-11.571c-0.196-2.353,1.373-7.845,1.765-9.022c0.392-1.177,0-5.491,1.569-4.903
					c1.569,0.588,1.765,2.157,1.765,3.53c0,1.373-0.784,3.138-0.784,4.119c0,0.981,2.942-2.55,2.942-2.55s0.392-4.707,0.784-5.491
					c0.392-0.785,2.55-1.373,3.334-0.196c0.784,1.177,0.981,5.491,0.981,5.491s1.569,6.08,1.765,8.433
					c0.196,2.354-3.138,8.826-3.726,9.218c-0.588,0.392-0.784,4.511-0.784,4.511L658.099,244.171z"/>
				<g>
					<path style="fill:#FFFFFF;stroke:#263238;stroke-linecap:round;stroke-linejoin:round;stroke-miterlimit:10;" d="
						M537.484,205.339c0,0-3.922-12.748-5.688-15.298c-1.765-2.55-4.118-3.922-5.491-5.491c-1.373-1.569-2.549-5.884-4.315-3.923
						c-1.765,1.961-0.392,4.903,0.196,5.492c0.588,0.588-4.903,3.726-4.903,4.707c0,0.981,1.765,2.942,1.961,3.53
						c0.196,0.588,2.157,6.668,3.334,7.06c1.177,0.392,5.884,2.746,5.884,2.746l4.118,4.903L537.484,205.339z"/>
					
						<line style="fill:none;stroke:#263238;stroke-linecap:round;stroke-linejoin:round;stroke-miterlimit:10;" x1="522.186" y1="186.119" x2="526.501" y2="190.826"/>
				</g>
				<path style="fill:#263238;stroke:#263238;stroke-linecap:round;stroke-linejoin:round;stroke-miterlimit:10;" d="
					M573.263,303.386c0,0-1.162,26.196-1.162,36.908c0,10.711,4.353,85.475,4.353,89.117c0,3.642,2.724,27.586,2.724,27.586
					s-3.428,0.214-3.428,1.285c0,1.071,0.429,6.213,0.429,6.213s-3.642,3.428-8.141,5.356c-4.499,1.928-5.784,3.213-4.499,4.713
					s13.925,2.785,19.066,2.142c5.142-0.643,8.569-0.643,8.998-2.142c0.428-1.5,0.643-7.284,0.643-8.141
					c0-0.857,1.285-4.285,1.5-7.284c0.214-2.999-0.214-3.856-0.214-6.641s9.57-103.083,9.57-103.083l21.162,51.506l19.346,57.361
					c0,0-1.285,0.857-0.857,1.928c0.428,1.071,4.07,9.854,4.07,9.854s-0.214,4.285,0.428,4.713c0.643,0.428,4.713,1.5,10.926,1.714
					c6.213,0.214,14.568-0.643,14.353-1.928c-0.214-1.285-3.642-2.999-5.141-4.284c-1.5-1.285-7.712-9.212-7.712-9.212
					s-1.285-4.499-1.714-5.142c-0.429-0.643-2.785-4.07-2.785-4.07s-8.11-53.022-9.181-56.449
					c-1.071-3.428-15.197-67.109-15.197-67.109l-4.622-22.126L573.263,303.386z"/>
				<g>
					<path style="fill:#BDBDBD;stroke:#263238;stroke-linecap:round;stroke-linejoin:round;stroke-miterlimit:10;" d="
						M584.749,225.539c0,0-12.944,1.569-17.455,3.138c-4.511,1.569-18.828,2.942-18.828,2.942s-8.826-27.065-9.414-27.261
						c-0.588-0.196-6.668,0-7.257,2.353c-0.588,2.354-0.588,2.354-0.588,2.354s5.688,44.52,6.668,46.677
						c0.981,2.157,2.942,1.765,4.315,1.569c1.373-0.196,27.457-3.53,27.457-3.53l1.817,47.911c0,0-0.052,1.708,0.733,3.081
						c0.784,1.373,9.806,7.257,27.849,6.864c18.043-0.392,26.869-1.961,27.457-3.53c0.588-1.569-0.784-7.453-0.981-8.629
						c-0.196-1.177,5.099-26.084,5.099-26.084s27.457,15.298,31.968,15.494c4.511,0.196,4.707-5.688,4.511-7.453
						c-0.196-1.765-5.099-39.617-5.099-39.617s-1.765-1.569-4.118-1.569c-2.354,0-2.354,0-2.354,0l-2.942,22.946
						c0,0-11.963-16.278-13.729-19.22c-1.765-2.942-4.903-7.453-8.041-10.198c-3.138-2.746-8.237-5.491-8.237-5.491
						S612.794,220.244,584.749,225.539z"/>
					
						<line style="fill:none;stroke:#263238;stroke-linecap:round;stroke-linejoin:round;stroke-miterlimit:10;" x1="634.256" y1="251.83" x2="634.76" y2="247.701"/>
					
						<line style="fill:none;stroke:#263238;stroke-linecap:round;stroke-linejoin:round;stroke-miterlimit:10;" x1="631.622" y1="273.393" x2="633.728" y2="256.152"/>
					<path style="fill:none;stroke:#263238;stroke-linecap:round;stroke-linejoin:round;stroke-miterlimit:10;" d="M603.045,258.927
						c1.334,4.022,2.516,7.977,3.277,11.328"/>
					<path style="fill:none;stroke:#263238;stroke-linecap:round;stroke-linejoin:round;stroke-miterlimit:10;" d="M594.163,235.346
						c0,0,4.429,10.554,8.127,21.342"/>
					<path style="fill:none;stroke:#263238;stroke-linecap:round;stroke-linejoin:round;stroke-miterlimit:10;" d="M606.715,261.43
						c0,0,3.138,8.237,3.726,16.082"/>
					
						<line style="fill:none;stroke:#263238;stroke-linecap:round;stroke-linejoin:round;stroke-miterlimit:10;" x1="569.096" y1="249.093" x2="567.686" y2="237.111"/>
					
						<line style="fill:none;stroke:#263238;stroke-linecap:round;stroke-linejoin:round;stroke-miterlimit:10;" x1="569.648" y1="253.781" x2="569.298" y2="250.811"/>
					<path style="fill:none;stroke:#263238;stroke-linecap:round;stroke-linejoin:round;stroke-miterlimit:10;" d="M548.466,231.619
						c0,0-4.903,1.177-6.864,4.707"/>
					
						<line style="fill:none;stroke:#263238;stroke-linecap:round;stroke-linejoin:round;stroke-miterlimit:10;" x1="661.417" y1="270.867" x2="663.394" y2="272.805"/>
					
						<line style="fill:none;stroke:#263238;stroke-linecap:round;stroke-linejoin:round;stroke-miterlimit:10;" x1="653.588" y1="263.195" x2="659.43" y2="268.92"/>
				</g>
			</g>
		</g>
	</g>
</g>
<g id="Character_1">
	<g>
		
			<rect x="173.951" y="249.831" style="fill:#263238;stroke:#263238;stroke-linecap:round;stroke-linejoin:round;stroke-miterlimit:10;" width="153.041" height="102.027"/>
		<g>
			
				<rect x="141.91" y="239.908" style="fill:#FFFFFF;stroke:#263238;stroke-linecap:round;stroke-linejoin:round;stroke-miterlimit:10;" width="178.517" height="102.321"/>
			
				<line style="fill:none;stroke:#263238;stroke-linecap:round;stroke-linejoin:round;stroke-miterlimit:10;" x1="141.91" y1="342.229" x2="320.426" y2="239.908"/>
			
				<line style="fill:none;stroke:#263238;stroke-linecap:round;stroke-linejoin:round;stroke-miterlimit:10;" x1="141.91" y1="239.908" x2="320.426" y2="342.229"/>
		</g>
		<g>
			<g>
				<g>
					<path style="fill:#FFFFFF;stroke:#263238;stroke-linecap:round;stroke-linejoin:round;stroke-miterlimit:10;" d="
						M215.942,265.548c0,0,1.362,4.359,1.226,8.719c-0.136,4.359,0.545,6.812,1.362,8.038c0.817,1.226,3.27,2.452,2.044,3.406
						c-1.226,0.954-3.815,2.725-3.815,2.725s-1.498,7.357-2.725,10.762c-1.226,3.406-8.447-0.954-8.447-0.954
						s-2.861,5.722-3.133,7.22c-0.273,1.499-0.817,1.635-0.817,1.635l-16.212-5.041l2.044-7.084c0,0-3.678-12.261-3.27-21.389
						c0.409-9.128,13.078-14.849,19.754-14.577C210.629,259.281,215.942,265.548,215.942,265.548z"/>
					<path style="fill:#263238;" d="M216.214,279.444c0,0.903-0.244,1.635-0.545,1.635c-0.301,0-0.545-0.732-0.545-1.635
						c0-0.903,0.244-1.635,0.545-1.635C215.97,277.809,216.214,278.541,216.214,279.444z"/>
					<path style="fill:none;stroke:#263238;stroke-linecap:round;stroke-linejoin:round;stroke-miterlimit:10;" d="M213.626,276.72
						c0,0,1.635-1.907,3.133-0.817"/>
					<path style="fill:none;stroke:#263238;stroke-linecap:round;stroke-linejoin:round;stroke-miterlimit:10;" d="M212.263,289.798
						c0,0,1.362,1.771,3.133,1.09"/>
				</g>
				<path style="fill:#263238;stroke:#263238;stroke-linecap:round;stroke-linejoin:round;stroke-miterlimit:10;" d="
					M222.345,263.641c0,0-1.499,5.041-5.313,8.31c-3.815,3.27-8.447,4.632-8.447,4.632s0.954,0.954-0.136,1.362
					c-1.09,0.409-2.861-0.954-3.951-0.136c-1.09,0.817-3.815,9.673-2.725,14.168c1.09,4.496,6.948,3.542,6.948,3.542
					s-6.539,5.858-11.58,6.267c-5.041,0.409-15.667-3.27-18.119-5.858c-2.452-2.588-6.13-11.716-4.087-17.165
					c2.044-5.449,5.722-15.667,9.536-19.345c3.814-3.678,12.261-6.267,16.348-6.539c4.087-0.272,8.991,0.681,11.989,3.27
					c2.997,2.589,4.359,5.313,4.904,5.313C218.258,261.461,222.617,261.734,222.345,263.641z"/>
				<path style="fill:none;stroke:#263238;stroke-linecap:round;stroke-linejoin:round;stroke-miterlimit:10;" d="M208.313,279.853
					c0,0-2.18-2.18-3.815-2.044c-1.635,0.136-2.316,7.765-1.09,9.4c1.226,1.635,4.087,0.272,4.087,0.272"/>
			</g>
			<path style="fill:#BDBDBD;stroke:#263238;stroke-linecap:round;stroke-linejoin:round;stroke-miterlimit:10;" d="
				M184.063,300.424c0,0,20.571,6.13,20.98,6.948s2.044,6.267,2.044,6.267l-26.293-9.536L184.063,300.424z"/>
			<g>
				<path style="fill:#FFFFFF;stroke:#263238;stroke-linecap:round;stroke-linejoin:round;stroke-miterlimit:10;" d="
					M269.881,343.229c0,0,4.826-4.022,6.435-4.665c1.609-0.643,6.274-0.161,7.722,0.161c1.448,0.322,4.022-1.287,5.63-0.644
					c1.609,0.644,0.965,1.448,0,2.413c-0.965,0.965-3.217,2.091-3.217,2.091l5.33-0.039c0,0-0.021,0.2-0.021,1.487
					s-0.965,2.091-1.448,2.574c-0.483,0.483-1.448,2.252-4.183,4.022c-2.735,1.769-7.883,0-9.813-0.804
					c-1.93-0.804-4.504-1.287-4.504-1.287l-1.93,0.643l-2.091-5.952H269.881z"/>
				
					<line style="fill:none;stroke:#263238;stroke-linecap:round;stroke-linejoin:round;stroke-miterlimit:10;" x1="286.451" y1="342.585" x2="283.476" y2="343.716"/>
			</g>
			<g>
				<path style="fill:#FFFFFF;stroke:#263238;stroke-linecap:round;stroke-linejoin:round;stroke-miterlimit:10;" d="M151,314.273
					c0,0,0.161-5.63,0.322-6.596c0.161-0.965,1.287-5.791,0.965-7.078c-0.322-1.287-4.022-5.63-4.343-7.078
					c-0.322-1.448-0.483-4.826-1.287-5.63c-0.804-0.804-2.574-0.161-2.896,1.287c-0.322,1.448-0.322,2.252-0.322,2.252l0.483,4.504
					c0,0-1.287,0.483-1.77-0.965c-0.483-1.448-0.804-2.735-0.804-2.735s-3.7,1.287-3.378,3.056c0.322,1.77,0.804,3.057,0.804,3.057
					s-2.574,6.435-1.287,7.882c1.287,1.448,5.309,5.47,5.791,6.113c0.483,0.643,2.091,5.47,2.091,5.47L151,314.273z"/>
				<path style="fill:none;stroke:#263238;stroke-linecap:round;stroke-linejoin:round;stroke-miterlimit:10;" d="M143.922,295.934
					c0,0,1.77,0.161,2.896,1.93"/>
			</g>
			<g>
				<path style="fill:#263238;stroke:#263238;stroke-linecap:round;stroke-linejoin:round;stroke-miterlimit:10;" d="M158.4,367.52
					c0,0-5.952,12.387-8.043,19.465c-2.091,7.078-0.644,15.604,1.609,23.487c2.252,7.882,9.974,40.217,9.974,40.217
					s-27.187,7.239-28.474,7.561c-1.287,0.322-3.217-2.252-5.148-1.77c-1.93,0.483-7.4,3.056-8.204,3.539
					c-0.804,0.483-8.204-5.47-9.813-5.309c-1.609,0.161-5.63,2.252-8.043,4.504c-2.413,2.252-13.03,4.826-15.122,8.043
					c-2.091,3.217-3.861,4.022-2.735,4.826c1.126,0.804,32.656-1.609,35.391-1.609c2.735,0,41.504,2.091,46.813,1.77
					c5.309-0.322,13.513-1.448,14.156-2.574c0.644-1.126,0.804-27.991,1.77-36.195c0.965-8.204,0.965-18.5,0.965-18.5
					s15.765-1.126,26.704-4.183c10.939-3.056,15.765-4.343,15.765-4.343l-5.309,45.526c0,0-3.057,4.022-3.057,4.665
					c0,0.643,0,8.365,0,8.365s-2.252,6.756-1.448,7.239c0.804,0.483,11.422,4.183,14.639,4.504c3.217,0.322,15.765,0,17.213-0.643
					c1.448-0.643,2.091-2.574,1.609-3.378c-0.483-0.804-5.148-1.93-6.274-3.056c-1.126-1.126-8.365-7.561-8.365-7.561
					s0.483-4.504,0.161-5.469c-0.322-0.965-1.126-5.47-1.126-5.47l15.122-44.882c0,0,4.987-18.982,4.665-20.43
					c-0.322-1.448-2.091-2.735-3.057-3.378c-0.965-0.644-26.221-4.022-33.3-3.378c-7.078,0.644-13.674,0.483-13.674,0.483
					l-3.7-8.687c0,0-12.548,2.252-23.487,0.161c-10.939-2.091-17.213-6.274-17.213-6.274L158.4,367.52z"/>
				
					<line style="fill:none;stroke:#858585;stroke-linecap:round;stroke-linejoin:round;stroke-miterlimit:10;" x1="204.408" y1="381.516" x2="208.591" y2="391.65"/>
				<path style="fill:none;stroke:#858585;stroke-linecap:round;stroke-linejoin:round;stroke-miterlimit:10;" d="M227.734,405.163
					c0,0,12.387-3.7,16.891-7.239"/>
				<path style="fill:none;stroke:#858585;stroke-linecap:round;stroke-linejoin:round;stroke-miterlimit:10;" d="M152.93,403.876
					c0,0,10.617,9.813,28.795,10.296"/>
				<path style="fill:none;stroke:#858585;stroke-linecap:round;stroke-linejoin:round;stroke-miterlimit:10;" d="M163.068,452.987
					c0,0,2.312,4.294,6.771,7.266"/>
			</g>
			<path style="fill:#BDBDBD;stroke:#263238;stroke-linecap:round;stroke-linejoin:round;stroke-miterlimit:10;" d="
				M180.793,304.103c0,0-17.889,9.205-18.533,10.17c-0.643,0.965-5.309,13.191-5.309,13.191l-5.63-16.409
				c0,0-4.987,0.965-6.274,2.735c-1.287,1.77-2.091,3.217-2.091,3.217s4.022,25.095,4.022,25.578c0,0.483-0.965,3.7,0.161,5.791
				c1.126,2.091,4.665,8.365,8.365,8.687c3.7,0.322,4.826-1.126,4.826-1.126s-1.93,5.469-2.896,8.365
				c-0.965,2.896-0.322,4.182,1.287,4.665c1.609,0.483,14.317,6.274,25.095,6.757c10.778,0.483,16.569-1.77,17.695-3.217
				c1.126-1.448,1.609-3.539,1.93-4.987c0.322-1.448,7.078-14.8,7.078-14.8s16.087,13.996,19.304,15.122
				c3.217,1.126,40.86-17.213,40.86-17.213s0.965-3.378-0.322-4.987c-1.287-1.609-2.574-3.057-3.539-2.896
				c-0.965,0.161-31.53,6.756-31.53,6.756s-18.178-28.152-19.304-29.6c-1.126-1.448-8.904-6.264-8.904-6.264L180.793,304.103z"/>
			
				<line style="fill:none;stroke:#263238;stroke-linecap:round;stroke-linejoin:round;stroke-miterlimit:10;" x1="210.521" y1="352.72" x2="204.569" y2="346.285"/>
			<path style="fill:none;stroke:#263238;stroke-linecap:round;stroke-linejoin:round;stroke-miterlimit:10;" d="M196.982,354.882
				c1.045,0.845,2.178,1.538,3.405,2.021"/>
			<path style="fill:none;stroke:#263238;stroke-linecap:round;stroke-linejoin:round;stroke-miterlimit:10;" d="M186.713,335.668
				c0,0,2.263,10.184,7.728,16.691"/>
			<path style="fill:none;stroke:#263238;stroke-linecap:round;stroke-linejoin:round;stroke-miterlimit:10;" d="M181.404,352.237
				c0,0,8.365,7.078,15.282,8.687"/>
			<path style="fill:none;stroke:#263238;stroke-linecap:round;stroke-linejoin:round;stroke-miterlimit:10;" d="M161.781,328.486
				c-0.071-1.643-0.09-2.943-0.003-3.596"/>
			<path style="fill:none;stroke:#263238;stroke-linecap:round;stroke-linejoin:round;stroke-miterlimit:10;" d="M160.33,355.937
				c0,0,1.93-8.043,2.091-12.708c0.085-2.479-0.193-6.821-0.424-10.708"/>
			
				<line style="fill:none;stroke:#263238;stroke-linecap:round;stroke-linejoin:round;stroke-miterlimit:10;" x1="149.404" y1="342.296" x2="147.783" y2="345.481"/>
			
				<line style="fill:none;stroke:#263238;stroke-linecap:round;stroke-linejoin:round;stroke-miterlimit:10;" x1="156.952" y1="327.464" x2="150.561" y2="340.022"/>
		</g>
	</g>
</g>
</svg>
